<svg width="829" height="403" viewBox="0 0 829 403" fill="none" xmlns="http://www.w3.org/2000/svg">
<g clip-path="url(#clip0_8_46)">
<path d="M123.312 245V228.438H143.812V178.625H123.312V162.062H154.875L171.5 178.625V228.438L154.875 245H123.312ZM91.3125 162.062H118.938V245H91.3125V162.062ZM236.5 162.062H264.375V245H236.688V211.312H216.188V194.688H236.5V162.062ZM211.812 245H184.188V162.062H211.812V245ZM277.688 227.312H286V179.688H277.688V162.062H321.938V179.688H313.625V227.312H321.938V245H277.688V227.312ZM335.312 245V162.062H362.938V245H335.312ZM367.312 178.625V162.062H398.875L415.5 178.625V203.5L402.75 216.25L401.875 214.5L375.938 217.938L376.938 220.125H367.312V204.062H388.062V178.625H367.312ZM418.312 245H388.812L376.938 220.125H398.875L402.75 216.25L418.312 245ZM507.812 228.438L491.25 245H459.5V228.438H480.188V162.062H491.25L507.812 178.625V228.438ZM455.25 245H444.25L427.625 228.438V178.625L444.25 162.062H475.938V178.625H455.25V245ZM574.25 162.062H602.125V245H574.438V211.312H553.938V194.688H574.25V162.062ZM549.562 245H521.938V162.062H549.562V245ZM615.438 227.312H623.75V179.688H615.438V162.062H659.688V179.688H651.375V227.312H659.688V245H615.438V227.312ZM690.625 184.438H719.375V245H690.625V184.438ZM669 162.062H741V180.125H669V162.062Z" fill="#733916"/>
<path d="M123.312 245H122.312V246H123.312V245ZM123.312 228.438V227.438H122.312V228.438H123.312ZM143.812 228.438V229.438H144.812V228.438H143.812ZM143.812 178.625H144.812V177.625H143.812V178.625ZM123.312 178.625H122.312V179.625H123.312V178.625ZM123.312 162.062V161.062H122.312V162.062H123.312ZM154.875 162.062L155.581 161.354L155.288 161.062H154.875V162.062ZM171.5 178.625H172.5V178.21L172.206 177.917L171.5 178.625ZM171.5 228.438L172.206 229.146L172.5 228.853V228.438H171.5ZM154.875 245V246H155.288L155.581 245.708L154.875 245ZM91.3125 162.062V161.062H90.3125V162.062H91.3125ZM118.938 162.062H119.938V161.062H118.938V162.062ZM118.938 245V246H119.938V245H118.938ZM91.3125 245H90.3125V246H91.3125V245ZM124.312 245V228.438H122.312V245H124.312ZM123.312 229.438H143.812V227.438H123.312V229.438ZM144.812 228.438V178.625H142.812V228.438H144.812ZM143.812 177.625H123.312V179.625H143.812V177.625ZM124.312 178.625V162.062H122.312V178.625H124.312ZM123.312 163.062H154.875V161.062H123.312V163.062ZM154.169 162.771L170.794 179.333L172.206 177.917L155.581 161.354L154.169 162.771ZM170.5 178.625V228.438H172.5V178.625H170.5ZM170.794 227.729L154.169 244.292L155.581 245.708L172.206 229.146L170.794 227.729ZM154.875 244H123.312V246H154.875V244ZM91.3125 163.062H118.938V161.062H91.3125V163.062ZM117.938 162.062V245H119.938V162.062H117.938ZM118.938 244H91.3125V246H118.938V244ZM92.3125 245V162.062H90.3125V245H92.3125ZM236.5 162.062V161.062H235.5V162.062H236.5ZM264.375 162.062H265.375V161.062H264.375V162.062ZM264.375 245V246H265.375V245H264.375ZM236.688 245H235.688V246H236.688V245ZM236.688 211.312H237.688V210.312H236.688V211.312ZM216.188 211.312H215.188V212.312H216.188V211.312ZM216.188 194.688V193.688H215.188V194.688H216.188ZM236.5 194.688V195.688H237.5V194.688H236.5ZM211.812 245V246H212.812V245H211.812ZM184.188 245H183.188V246H184.188V245ZM184.188 162.062V161.062H183.188V162.062H184.188ZM211.812 162.062H212.812V161.062H211.812V162.062ZM236.5 163.062H264.375V161.062H236.5V163.062ZM263.375 162.062V245H265.375V162.062H263.375ZM264.375 244H236.688V246H264.375V244ZM237.688 245V211.312H235.688V245H237.688ZM236.688 210.312H216.188V212.312H236.688V210.312ZM217.188 211.312V194.688H215.188V211.312H217.188ZM216.188 195.688H236.5V193.688H216.188V195.688ZM237.5 194.688V162.062H235.5V194.688H237.5ZM211.812 244H184.188V246H211.812V244ZM185.188 245V162.062H183.188V245H185.188ZM184.188 163.062H211.812V161.062H184.188V163.062ZM210.812 162.062V245H212.812V162.062H210.812ZM277.688 227.312V226.312H276.688V227.312H277.688ZM286 227.312V228.312H287V227.312H286ZM286 179.688H287V178.688H286V179.688ZM277.688 179.688H276.688V180.688H277.688V179.688ZM277.688 162.062V161.062H276.688V162.062H277.688ZM321.938 162.062H322.938V161.062H321.938V162.062ZM321.938 179.688V180.688H322.938V179.688H321.938ZM313.625 179.688V178.688H312.625V179.688H313.625ZM313.625 227.312H312.625V228.312H313.625V227.312ZM321.938 227.312H322.938V226.312H321.938V227.312ZM321.938 245V246H322.938V245H321.938ZM277.688 245H276.688V246H277.688V245ZM277.688 228.312H286V226.312H277.688V228.312ZM287 227.312V179.688H285V227.312H287ZM286 178.688H277.688V180.688H286V178.688ZM278.688 179.688V162.062H276.688V179.688H278.688ZM277.688 163.062H321.938V161.062H277.688V163.062ZM320.938 162.062V179.688H322.938V162.062H320.938ZM321.938 178.688H313.625V180.688H321.938V178.688ZM312.625 179.688V227.312H314.625V179.688H312.625ZM313.625 228.312H321.938V226.312H313.625V228.312ZM320.938 227.312V245H322.938V227.312H320.938ZM321.938 244H277.688V246H321.938V244ZM278.688 245V227.312H276.688V245H278.688ZM335.312 245H334.312V246H335.312V245ZM335.312 162.062V161.062H334.312V162.062H335.312ZM362.938 162.062H363.938V161.062H362.938V162.062ZM362.938 245V246H363.938V245H362.938ZM367.312 178.625H366.312V179.625H367.312V178.625ZM367.312 162.062V161.062H366.312V162.062H367.312ZM398.875 162.062L399.581 161.354L399.288 161.062H398.875V162.062ZM415.5 178.625H416.5V178.21L416.206 177.917L415.5 178.625ZM415.5 203.5L416.207 204.207L416.5 203.914V203.5H415.5ZM402.75 216.25L401.856 216.697L402.476 217.938L403.457 216.957L402.75 216.25ZM401.875 214.5L402.769 214.053L402.451 213.415L401.744 213.509L401.875 214.5ZM375.938 217.938L375.806 216.946L374.466 217.124L375.028 218.353L375.938 217.938ZM376.938 220.125V221.125H378.494L377.847 219.709L376.938 220.125ZM367.312 220.125H366.312V221.125H367.312V220.125ZM367.312 204.062V203.062H366.312V204.062H367.312ZM388.062 204.062V205.062H389.062V204.062H388.062ZM388.062 178.625H389.062V177.625H388.062V178.625ZM418.312 245V246H419.991L419.192 244.524L418.312 245ZM388.812 245L387.91 245.431L388.182 246H388.812V245ZM376.938 220.125V219.125H375.352L376.035 220.556L376.938 220.125ZM398.875 220.125V221.125H399.289L399.582 220.832L398.875 220.125ZM402.75 216.25L403.629 215.774L402.991 214.595L402.043 215.543L402.75 216.25ZM336.312 245V162.062H334.312V245H336.312ZM335.312 163.062H362.938V161.062H335.312V163.062ZM361.938 162.062V245H363.938V162.062H361.938ZM362.938 244H335.312V246H362.938V244ZM368.312 178.625V162.062H366.312V178.625H368.312ZM367.312 163.062H398.875V161.062H367.312V163.062ZM398.169 162.771L414.794 179.333L416.206 177.917L399.581 161.354L398.169 162.771ZM414.5 178.625V203.5H416.5V178.625H414.5ZM414.793 202.793L402.043 215.543L403.457 216.957L416.207 204.207L414.793 202.793ZM403.644 215.803L402.769 214.053L400.981 214.947L401.856 216.697L403.644 215.803ZM401.744 213.509L375.806 216.946L376.069 218.929L402.006 215.491L401.744 213.509ZM375.028 218.353L376.028 220.541L377.847 219.709L376.847 217.522L375.028 218.353ZM376.938 219.125H367.312V221.125H376.938V219.125ZM368.312 220.125V204.062H366.312V220.125H368.312ZM367.312 205.062H388.062V203.062H367.312V205.062ZM389.062 204.062V178.625H387.062V204.062H389.062ZM388.062 177.625H367.312V179.625H388.062V177.625ZM418.312 244H388.812V246H418.312V244ZM389.715 244.569L377.84 219.694L376.035 220.556L387.91 245.431L389.715 244.569ZM376.938 221.125H398.875V219.125H376.938V221.125ZM399.582 220.832L403.457 216.957L402.043 215.543L398.168 219.418L399.582 220.832ZM401.871 216.726L417.433 245.476L419.192 244.524L403.629 215.774L401.871 216.726ZM507.812 228.438L508.52 229.145L508.812 228.852V228.438H507.812ZM491.25 245V246H491.664L491.957 245.707L491.25 245ZM459.5 245H458.5V246H459.5V245ZM459.5 228.438V227.438H458.5V228.438H459.5ZM480.188 228.438V229.438H481.188V228.438H480.188ZM480.188 162.062V161.062H479.188V162.062H480.188ZM491.25 162.062L491.957 161.355L491.664 161.062H491.25V162.062ZM507.812 178.625H508.812V178.211L508.52 177.918L507.812 178.625ZM455.25 245V246H456.25V245H455.25ZM444.25 245L443.544 245.708L443.837 246H444.25V245ZM427.625 228.438H426.625V228.853L426.919 229.146L427.625 228.438ZM427.625 178.625L426.919 177.917L426.625 178.21V178.625H427.625ZM444.25 162.062V161.062H443.837L443.544 161.354L444.25 162.062ZM475.938 162.062H476.938V161.062H475.938V162.062ZM475.938 178.625V179.625H476.938V178.625H475.938ZM455.25 178.625V177.625H454.25V178.625H455.25ZM507.105 227.73L490.543 244.293L491.957 245.707L508.52 229.145L507.105 227.73ZM491.25 244H459.5V246H491.25V244ZM460.5 245V228.438H458.5V245H460.5ZM459.5 229.438H480.188V227.438H459.5V229.438ZM481.188 228.438V162.062H479.188V228.438H481.188ZM480.188 163.062H491.25V161.062H480.188V163.062ZM490.543 162.77L507.105 179.332L508.52 177.918L491.957 161.355L490.543 162.77ZM506.812 178.625V228.438H508.812V178.625H506.812ZM455.25 244H444.25V246H455.25V244ZM444.956 244.292L428.331 227.729L426.919 229.146L443.544 245.708L444.956 244.292ZM428.625 228.438V178.625H426.625V228.438H428.625ZM428.331 179.333L444.956 162.771L443.544 161.354L426.919 177.917L428.331 179.333ZM444.25 163.062H475.938V161.062H444.25V163.062ZM474.938 162.062V178.625H476.938V162.062H474.938ZM475.938 177.625H455.25V179.625H475.938V177.625ZM454.25 178.625V245H456.25V178.625H454.25ZM574.25 162.062V161.062H573.25V162.062H574.25ZM602.125 162.062H603.125V161.062H602.125V162.062ZM602.125 245V246H603.125V245H602.125ZM574.438 245H573.438V246H574.438V245ZM574.438 211.312H575.438V210.312H574.438V211.312ZM553.938 211.312H552.938V212.312H553.938V211.312ZM553.938 194.688V193.688H552.938V194.688H553.938ZM574.25 194.688V195.688H575.25V194.688H574.25ZM549.562 245V246H550.562V245H549.562ZM521.938 245H520.938V246H521.938V245ZM521.938 162.062V161.062H520.938V162.062H521.938ZM549.562 162.062H550.562V161.062H549.562V162.062ZM574.25 163.062H602.125V161.062H574.25V163.062ZM601.125 162.062V245H603.125V162.062H601.125ZM602.125 244H574.438V246H602.125V244ZM575.438 245V211.312H573.438V245H575.438ZM574.438 210.312H553.938V212.312H574.438V210.312ZM554.938 211.312V194.688H552.938V211.312H554.938ZM553.938 195.688H574.25V193.688H553.938V195.688ZM575.25 194.688V162.062H573.25V194.688H575.25ZM549.562 244H521.938V246H549.562V244ZM522.938 245V162.062H520.938V245H522.938ZM521.938 163.062H549.562V161.062H521.938V163.062ZM548.562 162.062V245H550.562V162.062H548.562ZM615.438 227.312V226.312H614.438V227.312H615.438ZM623.75 227.312V228.312H624.75V227.312H623.75ZM623.75 179.688H624.75V178.688H623.75V179.688ZM615.438 179.688H614.438V180.688H615.438V179.688ZM615.438 162.062V161.062H614.438V162.062H615.438ZM659.688 162.062H660.688V161.062H659.688V162.062ZM659.688 179.688V180.688H660.688V179.688H659.688ZM651.375 179.688V178.688H650.375V179.688H651.375ZM651.375 227.312H650.375V228.312H651.375V227.312ZM659.688 227.312H660.688V226.312H659.688V227.312ZM659.688 245V246H660.688V245H659.688ZM615.438 245H614.438V246H615.438V245ZM615.438 228.312H623.75V226.312H615.438V228.312ZM624.75 227.312V179.688H622.75V227.312H624.75ZM623.75 178.688H615.438V180.688H623.75V178.688ZM616.438 179.688V162.062H614.438V179.688H616.438ZM615.438 163.062H659.688V161.062H615.438V163.062ZM658.688 162.062V179.688H660.688V162.062H658.688ZM659.688 178.688H651.375V180.688H659.688V178.688ZM650.375 179.688V227.312H652.375V179.688H650.375ZM651.375 228.312H659.688V226.312H651.375V228.312ZM658.688 227.312V245H660.688V227.312H658.688ZM659.688 244H615.438V246H659.688V244ZM616.438 245V227.312H614.438V245H616.438ZM690.625 184.438V183.438H689.625V184.438H690.625ZM719.375 184.438H720.375V183.438H719.375V184.438ZM719.375 245V246H720.375V245H719.375ZM690.625 245H689.625V246H690.625V245ZM669 162.062V161.062H668V162.062H669ZM741 162.062H742V161.062H741V162.062ZM741 180.125V181.125H742V180.125H741ZM669 180.125H668V181.125H669V180.125ZM690.625 185.438H719.375V183.438H690.625V185.438ZM718.375 184.438V245H720.375V184.438H718.375ZM719.375 244H690.625V246H719.375V244ZM691.625 245V184.438H689.625V245H691.625ZM669 163.062H741V161.062H669V163.062ZM740 162.062V180.125H742V162.062H740ZM741 179.125H669V181.125H741V179.125ZM670 180.125V162.062H668V180.125H670Z" fill="#C27424"/>
<line x1="90.45" y1="353" x2="90.45" y2="-29" stroke="#C27424" stroke-width="1.1"/>
<line x1="183.45" y1="411" x2="183.45" y2="-29" stroke="#C27424" stroke-width="1.1"/>
<line x1="264.9" y1="393" x2="264.9" y2="-29" stroke="#C27424" stroke-dasharray="2.2 2.2"/>
<line x1="334.8" y1="393" x2="334.8" y2="-29" stroke="#C27424" stroke-dasharray="2.2 2.2"/>
<line x1="416" y1="393" x2="416" y2="-29" stroke="#C27424" stroke-dasharray="2.2 2.2"/>
<line x1="387.65" y1="393" x2="387.65" y2="-29" stroke="#C27424" stroke-width="0.9" stroke-dasharray="2.2 2.2"/>
<line x1="455.75" y1="393" x2="455.75" y2="-29" stroke="#C27424" stroke-width="0.9" stroke-dasharray="2.2 2.2"/>
<line x1="550.15" y1="393" x2="550.15" y2="-29" stroke="#C27424" stroke-width="0.9" stroke-dasharray="2.2 2.2"/>
<line x1="602.6" y1="393" x2="602.6" y2="-29" stroke="#C27424" stroke-dasharray="2.2 2.2"/>
<line x1="651.9" y1="393" x2="651.9" y2="-29" stroke="#C27424" stroke-dasharray="2.2 2.2"/>
<line x1="719.9" y1="393" x2="719.9" y2="-29" stroke="#C27424" stroke-dasharray="2.2 2.2"/>
<line x1="285.5" y1="365" x2="285.5" y2="-29" stroke="#C27424" stroke-dasharray="2.2 2.2"/>
<line x1="235.95" y1="353" x2="235.95" y2="-29" stroke="#C27424" stroke-width="1.1"/>
<line x1="314.15" y1="418" x2="314.15" y2="-29" stroke="#C27424" stroke-width="1.1"/>
<line x1="363.4" y1="418" x2="363.4" y2="-29" stroke="#C27424"/>
<line x1="427.15" y1="418" x2="427.15" y2="-29" stroke="#C27424" stroke-width="1.1"/>
<line x1="479.85" y1="418" x2="479.85" y2="-29" stroke="#C27424" stroke-width="0.9"/>
<line x1="508.25" y1="418" x2="508.25" y2="-30" stroke="#C27424" stroke-width="1.1"/>
<line x1="521.15" y1="418" x2="521.15" y2="-30" stroke="#C27424" stroke-width="1.1"/>
<line x1="574.05" y1="418" x2="574.05" y2="-30" stroke="#C27424" stroke-width="1.1"/>
<line x1="623.15" y1="418" x2="623.15" y2="-30" stroke="#C27424" stroke-width="1.1"/>
<line x1="690.15" y1="418" x2="690.15" y2="-30" stroke="#C27424" stroke-width="1.1"/>
<line x1="143.3" y1="339" x2="143.3" y2="-29" stroke="#C27424" stroke-dasharray="2 2"/>
<line x1="172" y1="332" x2="172" y2="-2" stroke="#C27424"/>
<line x1="212.3" y1="332" x2="212.3" y2="-2" stroke="#C27424" stroke-dasharray="2.2 2.2"/>
<line x1="-24" y1="245.5" x2="915" y2="245.5" stroke="#C27424" stroke-dasharray="2 2"/>
<line x1="-24" y1="179.5" x2="915" y2="179.5" stroke="#C27424" stroke-dasharray="2 2"/>
<line x1="-33" y1="161.5" x2="906" y2="161.5" stroke="#C27424"/>
<line x1="-42" y1="227.5" x2="897" y2="227.5" stroke="#C27424"/>
<line x1="322.45" y1="227" x2="322.45" y2="337" stroke="#C27424" stroke-width="0.9" stroke-dasharray="2 2"/>
<line x1="277.25" y1="70" x2="277.25" y2="180" stroke="#C27424" stroke-width="0.9" stroke-dasharray="2 2"/>
</g>
<defs>
<clipPath id="clip0_8_46">
<rect width="829" height="403" fill="white"/>
</clipPath>
</defs>
</svg>
